<mxfile host="app.diagrams.net" modified="2023-07-31T16:55:33.465Z" agent="Mozilla/5.0 (X11; Linux x86_64; rv:108.0) Gecko/20100101 Firefox/108.0" etag="8AJHnVSIyVPjCJXuKZx6" version="21.6.6" type="device">
  <diagram name="Page-1" id="f5A6CDPiya6YqWZAvQuT">
    <mxGraphModel dx="954" dy="-657" grid="1" gridSize="10" guides="1" tooltips="1" connect="1" arrows="1" fold="1" page="1" pageScale="1" pageWidth="827" pageHeight="1169" math="0" shadow="0">
      <root>
        <mxCell id="0" />
        <mxCell id="1" parent="0" />
        <mxCell id="3oUJ_5gLEvu6R0pSqBkJ-1" value="LOOP" style="shape=umlFrame;tabWidth=110;tabHeight=30;tabPosition=left;html=1;boundedLbl=1;labelInHeader=1;width=40;height=20;swimlaneFillColor=#E6E6E6;fillColor=#f5f5f5;strokeColor=#666666;fillOpacity=60;fontColor=#333333;" parent="1" vertex="1">
          <mxGeometry x="205" y="1430" width="390" height="610" as="geometry" />
        </mxCell>
        <mxCell id="3oUJ_5gLEvu6R0pSqBkJ-40" value="1.generaFoglioRiepilogativo(servizio)" style="html=1;verticalAlign=bottom;endArrow=block;edgeStyle=elbowEdgeStyle;elbow=vertical;curved=0;rounded=0;labelBackgroundColor=none;" parent="1" edge="1">
          <mxGeometry x="-0.0028" relative="1" as="geometry">
            <mxPoint x="253.75" y="1504" as="sourcePoint" />
            <Array as="points" />
            <mxPoint x="540" y="1504" as="targetPoint" />
            <mxPoint as="offset" />
          </mxGeometry>
        </mxCell>
        <mxCell id="3oUJ_5gLEvu6R0pSqBkJ-33" value="LOOP" style="shape=umlFrame;tabWidth=110;tabHeight=30;tabPosition=left;html=1;boundedLbl=1;labelInHeader=1;width=40;height=20;swimlaneFillColor=#E6E6E6;fillColor=#f5f5f5;strokeColor=#666666;fillOpacity=60;fontColor=#333333;" parent="1" vertex="1">
          <mxGeometry x="165" y="1540" width="470" height="860" as="geometry" />
        </mxCell>
        <mxCell id="3oUJ_5gLEvu6R0pSqBkJ-21" value="LOOP" style="shape=umlFrame;tabWidth=110;tabHeight=30;tabPosition=left;html=1;boundedLbl=1;labelInHeader=1;width=40;height=20;swimlaneFillColor=#E6E6E6;fillColor=#f5f5f5;strokeColor=#666666;fillOpacity=60;fontColor=#333333;" parent="1" vertex="1">
          <mxGeometry x="185" y="2047.5" width="430" height="330" as="geometry" />
        </mxCell>
        <mxCell id="3oUJ_5gLEvu6R0pSqBkJ-22" value="OPT" style="shape=umlFrame;tabWidth=110;tabHeight=30;tabPosition=left;html=1;boundedLbl=1;labelInHeader=1;width=40;height=20;swimlaneFillColor=#E6E6E6;fillColor=#f5f5f5;strokeColor=#666666;fillOpacity=60;fontColor=#333333;" parent="1" vertex="1">
          <mxGeometry x="195" y="2077.5" width="390" height="90" as="geometry" />
        </mxCell>
        <mxCell id="3oUJ_5gLEvu6R0pSqBkJ-23" value="4.consultaTabelloneTurni()" style="html=1;verticalAlign=bottom;endArrow=block;edgeStyle=elbowEdgeStyle;elbow=vertical;curved=0;rounded=0;labelBackgroundColor=none;fillColor=#f5f5f5;strokeColor=#666666;" parent="1" edge="1">
          <mxGeometry relative="1" as="geometry">
            <mxPoint x="251.25" y="2117.5" as="sourcePoint" />
            <Array as="points" />
            <mxPoint x="538.75" y="2117.5" as="targetPoint" />
          </mxGeometry>
        </mxCell>
        <mxCell id="3oUJ_5gLEvu6R0pSqBkJ-24" value="tabellone turni" style="html=1;verticalAlign=bottom;endArrow=open;edgeStyle=elbowEdgeStyle;elbow=vertical;curved=0;rounded=0;labelBackgroundColor=none;endFill=0;dashed=1;fillColor=#f5f5f5;strokeColor=#666666;" parent="1" edge="1">
          <mxGeometry relative="1" as="geometry">
            <mxPoint x="540.25" y="2147.4999999999995" as="sourcePoint" />
            <mxPoint x="249.75" y="2147.5" as="targetPoint" />
          </mxGeometry>
        </mxCell>
        <mxCell id="3oUJ_5gLEvu6R0pSqBkJ-27" value="OPT" style="shape=umlFrame;tabWidth=110;tabHeight=30;tabPosition=left;html=1;boundedLbl=1;labelInHeader=1;width=40;height=20;swimlaneFillColor=#E6E6E6;fillColor=#f5f5f5;strokeColor=#666666;fillOpacity=60;fontColor=#333333;" parent="1" vertex="1">
          <mxGeometry x="195" y="2175" width="390" height="90" as="geometry" />
        </mxCell>
        <mxCell id="3oUJ_5gLEvu6R0pSqBkJ-34" value="OPT" style="shape=umlFrame;tabWidth=110;tabHeight=30;tabPosition=left;html=1;boundedLbl=1;labelInHeader=1;width=40;height=20;swimlaneFillColor=#E6E6E6;fillColor=#f5f5f5;strokeColor=#666666;fillOpacity=60;fontColor=#333333;" parent="1" vertex="1">
          <mxGeometry x="195" y="2275" width="390" height="90" as="geometry" />
        </mxCell>
        <mxCell id="3oUJ_5gLEvu6R0pSqBkJ-25" value="5.assegnaCompito(compito, turno, cuoco?)" style="html=1;verticalAlign=bottom;endArrow=block;edgeStyle=elbowEdgeStyle;elbow=vertical;curved=0;rounded=0;labelBackgroundColor=none;fillColor=#f5f5f5;strokeColor=#666666;" parent="1" target="3oUJ_5gLEvu6R0pSqBkJ-31" edge="1">
          <mxGeometry relative="1" as="geometry">
            <mxPoint x="252.5" y="2212" as="sourcePoint" />
            <Array as="points">
              <mxPoint x="358" y="2212.41" />
            </Array>
            <mxPoint x="547.5" y="2212.4099999999994" as="targetPoint" />
          </mxGeometry>
        </mxCell>
        <mxCell id="3oUJ_5gLEvu6R0pSqBkJ-26" value="foglio aggiornato" style="html=1;verticalAlign=bottom;endArrow=open;edgeStyle=elbowEdgeStyle;elbow=vertical;curved=0;rounded=0;labelBackgroundColor=none;endFill=0;dashed=1;fillColor=#f5f5f5;strokeColor=#666666;" parent="1" target="3oUJ_5gLEvu6R0pSqBkJ-30" edge="1">
          <mxGeometry relative="1" as="geometry">
            <mxPoint x="540" y="2237.4999999999995" as="sourcePoint" />
            <mxPoint x="245" y="2237.5" as="targetPoint" />
            <Array as="points" />
          </mxGeometry>
        </mxCell>
        <mxCell id="3oUJ_5gLEvu6R0pSqBkJ-28" value="6.aggiuntaDettagliCompito(compito, stimaTempo?,quantitÃ ?, daPreparare?)" style="html=1;verticalAlign=bottom;endArrow=block;edgeStyle=elbowEdgeStyle;elbow=horizontal;curved=0;rounded=0;labelBackgroundColor=none;fillColor=#f5f5f5;strokeColor=#666666;" parent="1" target="3oUJ_5gLEvu6R0pSqBkJ-31" edge="1">
          <mxGeometry relative="1" as="geometry">
            <mxPoint x="252.5" y="2317.5" as="sourcePoint" />
            <Array as="points">
              <mxPoint x="348" y="2317.91" />
            </Array>
            <mxPoint x="537.5" y="2317.9099999999994" as="targetPoint" />
          </mxGeometry>
        </mxCell>
        <mxCell id="3oUJ_5gLEvu6R0pSqBkJ-29" value="compito aggiornato" style="html=1;verticalAlign=bottom;endArrow=block;edgeStyle=elbowEdgeStyle;elbow=vertical;curved=0;rounded=0;labelBackgroundColor=none;fillColor=#f5f5f5;strokeColor=#666666;" parent="1" source="3oUJ_5gLEvu6R0pSqBkJ-31" edge="1">
          <mxGeometry relative="1" as="geometry">
            <mxPoint x="535" y="2347.4999999999995" as="sourcePoint" />
            <mxPoint x="250" y="2347.4999999999995" as="targetPoint" />
          </mxGeometry>
        </mxCell>
        <mxCell id="3oUJ_5gLEvu6R0pSqBkJ-9" value="LOOP" style="shape=umlFrame;tabWidth=110;tabHeight=30;tabPosition=left;html=1;boundedLbl=1;labelInHeader=1;width=40;height=20;swimlaneFillColor=#E6E6E6;fillColor=#f5f5f5;strokeColor=#666666;fillOpacity=60;fontColor=#333333;" parent="1" vertex="1">
          <mxGeometry x="215" y="1550" width="370" height="350" as="geometry" />
        </mxCell>
        <mxCell id="3oUJ_5gLEvu6R0pSqBkJ-13" value="OPT" style="shape=umlFrame;tabWidth=110;tabHeight=30;tabPosition=left;html=1;boundedLbl=1;labelInHeader=1;width=40;height=20;swimlaneFillColor=#E6E6E6;fillColor=#f5f5f5;strokeColor=#666666;fillOpacity=60;fontColor=#333333;container=1;" parent="1" vertex="1">
          <mxGeometry x="220" y="1940" width="350" height="90" as="geometry" />
        </mxCell>
        <mxCell id="3oUJ_5gLEvu6R0pSqBkJ-18" value="foglio riepilogativo ordinato" style="html=1;verticalAlign=bottom;endArrow=open;edgeStyle=elbowEdgeStyle;elbow=vertical;curved=0;rounded=0;labelBackgroundColor=none;endFill=0;dashed=1;fillColor=#f5f5f5;strokeColor=#666666;" parent="3oUJ_5gLEvu6R0pSqBkJ-13" edge="1">
          <mxGeometry x="0.002" relative="1" as="geometry">
            <mxPoint x="320.25" y="70.00041666666675" as="sourcePoint" />
            <mxPoint x="29.75" y="70.06999999999994" as="targetPoint" />
            <mxPoint as="offset" />
          </mxGeometry>
        </mxCell>
        <mxCell id="3oUJ_5gLEvu6R0pSqBkJ-16" value="3.ordinaFoglioRiepilogativo(criterioOrdinamento)" style="html=1;verticalAlign=bottom;endArrow=block;edgeStyle=elbowEdgeStyle;elbow=vertical;curved=0;rounded=0;labelBackgroundColor=none;fillColor=#f5f5f5;strokeColor=#666666;" parent="3oUJ_5gLEvu6R0pSqBkJ-13" target="3oUJ_5gLEvu6R0pSqBkJ-31" edge="1">
          <mxGeometry relative="1" as="geometry">
            <mxPoint x="32.5" y="37.91666666666674" as="sourcePoint" />
            <Array as="points">
              <mxPoint x="128" y="38.13875000000007" />
            </Array>
            <mxPoint x="317.5" y="38.138749999999845" as="targetPoint" />
          </mxGeometry>
        </mxCell>
        <mxCell id="8e-te7Ogq6yMoprlRzKs-13" value="&lt;font color=&quot;#ffa89e&quot;&gt;ALT&lt;/font&gt;" style="shape=umlFrame;tabWidth=110;tabHeight=30;tabPosition=left;html=1;boundedLbl=1;labelInHeader=1;width=50;height=20;swimlaneFillColor=#FFE6CC;fillColor=#ffe6cc;strokeColor=#d79b00;fillOpacity=60;" parent="1" vertex="1">
          <mxGeometry x="230" y="1580" width="340" height="90" as="geometry" />
        </mxCell>
        <mxCell id="8e-te7Ogq6yMoprlRzKs-14" value="2.aggiungeCompito(mansione, compitoPrec?)" style="html=1;verticalAlign=bottom;endArrow=block;edgeStyle=elbowEdgeStyle;elbow=vertical;curved=0;rounded=0;labelBackgroundColor=none;" parent="1" target="3oUJ_5gLEvu6R0pSqBkJ-31" edge="1">
          <mxGeometry relative="1" as="geometry">
            <mxPoint x="252.5" y="1613.8600000000004" as="sourcePoint" />
            <Array as="points">
              <mxPoint x="348" y="1614.27" />
            </Array>
            <mxPoint x="537.5" y="1614.2699999999998" as="targetPoint" />
          </mxGeometry>
        </mxCell>
        <mxCell id="8e-te7Ogq6yMoprlRzKs-15" value="foglio riepilogativo aggiornato" style="html=1;verticalAlign=bottom;endArrow=open;edgeStyle=elbowEdgeStyle;elbow=vertical;curved=0;rounded=0;labelBackgroundColor=none;dashed=1;endFill=0;" parent="1" edge="1">
          <mxGeometry relative="1" as="geometry">
            <mxPoint x="537.5" y="1644.86" as="sourcePoint" />
            <mxPoint x="252.5" y="1644.86" as="targetPoint" />
          </mxGeometry>
        </mxCell>
        <mxCell id="8e-te7Ogq6yMoprlRzKs-16" value="" style="shape=umlFrame;tabWidth=110;tabHeight=30;tabPosition=left;html=1;boundedLbl=1;labelInHeader=1;width=10;height=15;swimlaneFillColor=#FFE6CC;fillColor=#ffe6cc;strokeColor=#d79b00;fillOpacity=60;" parent="1" vertex="1">
          <mxGeometry x="230" y="1670" width="340" height="210" as="geometry" />
        </mxCell>
        <mxCell id="8e-te7Ogq6yMoprlRzKs-17" value="2a.1rimuoveCompito(mansione, compitoPrec?)" style="html=1;verticalAlign=bottom;endArrow=block;edgeStyle=elbowEdgeStyle;elbow=vertical;curved=0;rounded=0;labelBackgroundColor=none;" parent="1" target="3oUJ_5gLEvu6R0pSqBkJ-31" edge="1">
          <mxGeometry relative="1" as="geometry">
            <mxPoint x="252.49999999999977" y="1693.7900000000006" as="sourcePoint" />
            <Array as="points">
              <mxPoint x="348" y="1694.2" />
            </Array>
            <mxPoint x="537.5" y="1694.1999999999996" as="targetPoint" />
          </mxGeometry>
        </mxCell>
        <mxCell id="3oUJ_5gLEvu6R0pSqBkJ-30" value="Chef" style="shape=umlLifeline;participant=umlActor;perimeter=lifelinePerimeter;whiteSpace=wrap;html=1;container=1;collapsible=0;recursiveResize=0;verticalAlign=top;spacingTop=36;outlineConnect=0;labelBackgroundColor=default;" parent="1" vertex="1">
          <mxGeometry x="240" y="1340" width="25" height="1090" as="geometry" />
        </mxCell>
        <mxCell id="3oUJ_5gLEvu6R0pSqBkJ-31" value="Sistema" style="shape=umlLifeline;perimeter=lifelinePerimeter;whiteSpace=wrap;html=1;container=0;collapsible=0;recursiveResize=0;outlineConnect=0;labelBackgroundColor=none;" parent="1" vertex="1">
          <mxGeometry x="490" y="1340" width="100" height="1110" as="geometry" />
        </mxCell>
        <mxCell id="8e-te7Ogq6yMoprlRzKs-23" value="" style="group" parent="1" vertex="1" connectable="0">
          <mxGeometry x="240" y="1710" width="320" height="160" as="geometry" />
        </mxCell>
        <mxCell id="8e-te7Ogq6yMoprlRzKs-19" value="" style="shape=umlFrame;whiteSpace=wrap;html=1;swimlaneFillColor=#FF9999;fillColor=#f8cecc;strokeColor=#FF3333;fillOpacity=60;fontColor=#FF0000;width=10;height=15;" parent="8e-te7Ogq6yMoprlRzKs-23" vertex="1">
          <mxGeometry y="110" width="320" height="50" as="geometry" />
        </mxCell>
        <mxCell id="3oUJ_5gLEvu6R0pSqBkJ-43" value="ALT" style="shape=umlFrame;whiteSpace=wrap;html=1;swimlaneFillColor=#FF9999;fillColor=#f8cecc;strokeColor=#FF3333;fillOpacity=60;fontColor=#FF0000;" parent="8e-te7Ogq6yMoprlRzKs-23" vertex="1">
          <mxGeometry width="320" height="60" as="geometry" />
        </mxCell>
        <mxCell id="3oUJ_5gLEvu6R0pSqBkJ-44" value="" style="shape=umlFrame;whiteSpace=wrap;html=1;swimlaneFillColor=#FF9999;fillColor=#f8cecc;strokeColor=#FF3333;fillOpacity=60;fontColor=#FF0000;width=10;height=15;" parent="8e-te7Ogq6yMoprlRzKs-23" vertex="1">
          <mxGeometry y="60" width="320" height="50" as="geometry" />
        </mxCell>
        <mxCell id="3oUJ_5gLEvu6R0pSqBkJ-39" value="foglio riepilogativo aggiornato" style="html=1;verticalAlign=bottom;endArrow=block;edgeStyle=elbowEdgeStyle;elbow=vertical;curved=0;rounded=0;labelBackgroundColor=none;dashed=1;" parent="8e-te7Ogq6yMoprlRzKs-23" edge="1">
          <mxGeometry relative="1" as="geometry">
            <mxPoint x="300" y="40" as="sourcePoint" />
            <mxPoint x="10" y="40.14000000000033" as="targetPoint" />
          </mxGeometry>
        </mxCell>
        <mxCell id="3oUJ_5gLEvu6R0pSqBkJ-45" value="2a.1a.1 la mansione non fa parte del menÃ¹" style="html=1;verticalAlign=bottom;endArrow=block;edgeStyle=elbowEdgeStyle;elbow=horizontal;curved=0;rounded=0;labelBackgroundColor=none;dashed=1;strokeColor=#FF0000;fontColor=#FF0000;" parent="8e-te7Ogq6yMoprlRzKs-23" edge="1">
          <mxGeometry relative="1" as="geometry">
            <mxPoint x="300" y="84.5" as="sourcePoint" />
            <mxPoint x="10" y="84.64000000000033" as="targetPoint" />
          </mxGeometry>
        </mxCell>
        <mxCell id="3oUJ_5gLEvu6R0pSqBkJ-52" value="" style="shape=umlDestroy;whiteSpace=wrap;html=1;strokeWidth=3;targetShapes=umlLifeline;" parent="8e-te7Ogq6yMoprlRzKs-23" vertex="1">
          <mxGeometry x="290" y="75" width="20" height="20" as="geometry" />
        </mxCell>
        <mxCell id="8e-te7Ogq6yMoprlRzKs-20" value="2a.1b.1 mansione associata a compito da non preparare" style="html=1;verticalAlign=bottom;endArrow=block;edgeStyle=elbowEdgeStyle;elbow=horizontal;curved=0;rounded=0;labelBackgroundColor=none;dashed=1;strokeColor=#FF0000;fontColor=#FF0000;" parent="8e-te7Ogq6yMoprlRzKs-23" edge="1">
          <mxGeometry relative="1" as="geometry">
            <mxPoint x="300" y="134.5" as="sourcePoint" />
            <mxPoint x="10" y="134.64000000000033" as="targetPoint" />
          </mxGeometry>
        </mxCell>
        <mxCell id="8e-te7Ogq6yMoprlRzKs-21" value="" style="shape=umlDestroy;whiteSpace=wrap;html=1;strokeWidth=3;targetShapes=umlLifeline;" parent="8e-te7Ogq6yMoprlRzKs-23" vertex="1">
          <mxGeometry x="290" y="125" width="20" height="20" as="geometry" />
        </mxCell>
      </root>
    </mxGraphModel>
  </diagram>
</mxfile>
